<svg xmlns="http://www.w3.org/2000/svg" width="1200" height="600" viewBox="0 0 1200 600"><rect width="100%" height="100%" fill="#DDDDDD"/><path fill="#999999" d="M291.675 266.525h-32.1v21.4h27.1v10.75h-27.1v29.45h-13.5v-72.3h45.6v10.7Zm18.8 30.05h23.3q0-2.4-.67-4.53-.68-2.12-2.03-3.72-1.35-1.6-3.42-2.53-2.08-.92-4.83-.92-5.35 0-8.42 3.05-3.08 3.05-3.93 8.65Zm31.5 7.45h-31.75q.3 3.95 1.4 6.82 1.1 2.88 2.9 4.75 1.8 1.88 4.28 2.8 2.47.93 5.47.93 3 0 5.18-.7 2.17-.7 3.8-1.55 1.62-.85 2.85-1.55 1.22-.7 2.37-.7 1.55 0 2.3 1.15l3.55 4.5q-2.05 2.4-4.6 4.02-2.55 1.63-5.32 2.6-2.78.98-5.65 1.38-2.88.4-5.58.4-5.35 0-9.95-1.78-4.6-1.77-8-5.25-3.4-3.47-5.35-8.6-1.95-5.12-1.95-11.87 0-5.25 1.7-9.88 1.7-4.62 4.88-8.05 3.17-3.42 7.75-5.42 4.57-2 10.32-2 4.85 0 8.95 1.55t7.05 4.52q2.95 2.98 4.63 7.3 1.67 4.33 1.67 9.88 0 2.8-.6 3.77-.6.98-2.3.98Zm39.25 10.85v-8.65q-5.35.25-9 .92-3.65.68-5.85 1.73-2.2 1.05-3.15 2.45-.95 1.4-.95 3.05 0 3.25 1.93 4.65 1.92 1.4 5.02 1.4 3.8 0 6.58-1.38 2.77-1.37 5.42-4.17Zm-26.1-26.95-2.2-3.95q8.85-8.1 21.3-8.1 4.5 0 8.05 1.47 3.55 1.48 6 4.1 2.45 2.63 3.73 6.28 1.27 3.65 1.27 8v32.4h-5.6q-1.75 0-2.7-.53-.95-.52-1.5-2.12l-1.1-3.7q-1.95 1.75-3.8 3.07-1.85 1.33-3.85 2.23-2 .9-4.27 1.38-2.28.47-5.03.47-3.25 0-6-.88-2.75-.87-4.75-2.62t-3.1-4.35q-1.1-2.6-1.1-6.05 0-1.95.65-3.88.65-1.92 2.13-3.67 1.47-1.75 3.82-3.3 2.35-1.55 5.78-2.7 3.42-1.15 7.97-1.88 4.55-.72 10.4-.87v-3q0-5.15-2.2-7.63-2.2-2.47-6.35-2.47-3 0-4.97.7-1.98.7-3.48 1.57-1.5.88-2.72 1.58-1.23.7-2.73.7-1.3 0-2.2-.68-.9-.67-1.45-1.57Zm66.85 41q-6.7 0-10.27-3.78-3.58-3.77-3.58-10.42v-28.65h-5.25q-1 0-1.7-.65t-.7-1.95v-4.9l8.25-1.35 2.6-14q.25-1 .95-1.55t1.8-.55h6.4v16.15h13.7v8.8h-13.7v27.8q0 2.4 1.18 3.75 1.17 1.35 3.22 1.35 1.15 0 1.93-.28.77-.27 1.35-.57.57-.3 1.02-.58.45-.27.9-.27.55 0 .9.27.35.28.75.83l3.7 6q-2.7 2.25-6.2 3.4t-7.25 1.15Zm51.95-52.1h12.35v51.3h-7.55q-2.45 0-3.1-2.25l-.85-4.1q-3.15 3.2-6.95 5.17-3.8 1.98-8.95 1.98-4.2 0-7.42-1.43-3.23-1.42-5.43-4.02-2.2-2.6-3.32-6.18-1.13-3.57-1.13-7.87v-32.6h12.35v32.6q0 4.7 2.18 7.27 2.17 2.58 6.52 2.58 3.2 0 6-1.43 2.8-1.42 5.3-3.92v-37.1Zm35.45 3.1.75 5.8q2.4-4.6 5.7-7.23 3.3-2.62 7.8-2.62 3.55 0 5.7 1.55l-.8 9.25q-.25.9-.72 1.27-.48.38-1.28.38-.75 0-2.22-.25-1.48-.25-2.88-.25-2.05 0-3.65.6t-2.87 1.72q-1.28 1.13-2.25 2.73-.98 1.6-1.83 3.65v31.6h-12.35v-51.3h7.25q1.9 0 2.65.67.75.68 1 2.43Zm36.15 16.65h23.3q0-2.4-.67-4.53-.68-2.12-2.03-3.72-1.35-1.6-3.42-2.53-2.08-.92-4.83-.92-5.35 0-8.42 3.05-3.08 3.05-3.93 8.65Zm31.5 7.45h-31.75q.3 3.95 1.4 6.82 1.1 2.88 2.9 4.75 1.8 1.88 4.28 2.8 2.47.93 5.47.93 3 0 5.18-.7 2.17-.7 3.8-1.55 1.62-.85 2.85-1.55 1.22-.7 2.37-.7 1.55 0 2.3 1.15l3.55 4.5q-2.05 2.4-4.6 4.02-2.55 1.63-5.32 2.6-2.78.98-5.65 1.38-2.88.4-5.58.4-5.35 0-9.95-1.78-4.6-1.77-8-5.25-3.4-3.47-5.35-8.6-1.95-5.12-1.95-11.87 0-5.25 1.7-9.88 1.7-4.62 4.88-8.05 3.17-3.42 7.75-5.42 4.57-2 10.32-2 4.85 0 8.95 1.55t7.05 4.52q2.95 2.98 4.63 7.3 1.67 4.33 1.67 9.88 0 2.8-.6 3.77-.6.98-2.3.98Zm44.35 8.9v-23q-2.1-2.55-4.57-3.6-2.48-1.05-5.33-1.05-2.8 0-5.05 1.05t-3.85 3.17q-1.6 2.13-2.45 5.4-.85 3.28-.85 7.73 0 4.5.73 7.62.72 3.13 2.07 5.1 1.35 1.98 3.3 2.85 1.95.88 4.35.88 3.85 0 6.55-1.6 2.7-1.6 5.1-4.55Zm0-59.1h12.35v74.3h-7.55q-2.45 0-3.1-2.25l-1.05-4.95q-3.1 3.55-7.12 5.75-4.03 2.2-9.38 2.2-4.2 0-7.7-1.75t-6.02-5.08q-2.53-3.32-3.9-8.22-1.38-4.9-1.38-11.2 0-5.7 1.55-10.6 1.55-4.9 4.45-8.5 2.9-3.6 6.95-5.63 4.05-2.02 9.1-2.02 4.3 0 7.35 1.35t5.45 3.65v-27.05Zm64.3 2v72.3h-13.5v-72.3h13.5Zm26.55 72.3h-12.35v-51.3h7.55q2.4 0 3.15 2.25l.8 3.8q1.35-1.5 2.83-2.75 1.47-1.25 3.15-2.15 1.67-.9 3.6-1.43 1.92-.52 4.22-.52 4.85 0 7.98 2.62 3.12 2.63 4.67 6.98 1.2-2.55 3-4.38 1.8-1.82 3.95-2.97 2.15-1.15 4.58-1.7 2.42-.55 4.87-.55 4.25 0 7.55 1.3t5.55 3.8q2.25 2.5 3.43 6.1 1.17 3.6 1.17 8.25v32.65h-12.35v-32.65q0-4.9-2.15-7.38-2.15-2.47-6.3-2.47-1.9 0-3.52.65-1.63.65-2.85 1.87-1.23 1.23-1.93 3.08t-.7 4.25v32.65h-12.4v-32.65q0-5.15-2.07-7.5-2.08-2.35-6.08-2.35-2.7 0-5.02 1.32-2.33 1.33-4.33 3.63v37.55Zm98.5-13.25v-8.65q-5.35.25-9 .92-3.65.68-5.85 1.73-2.2 1.05-3.15 2.45-.95 1.4-.95 3.05 0 3.25 1.93 4.65 1.92 1.4 5.02 1.4 3.8 0 6.58-1.38 2.77-1.37 5.42-4.17Zm-26.1-26.95-2.2-3.95q8.85-8.1 21.3-8.1 4.5 0 8.05 1.47 3.55 1.48 6 4.1 2.45 2.63 3.73 6.28 1.27 3.65 1.27 8v32.4h-5.6q-1.75 0-2.7-.53-.95-.52-1.5-2.12l-1.1-3.7q-1.95 1.75-3.8 3.07-1.85 1.33-3.85 2.23-2 .9-4.27 1.38-2.28.47-5.03.47-3.25 0-6-.88-2.75-.87-4.75-2.62t-3.1-4.35q-1.1-2.6-1.1-6.05 0-1.95.65-3.88.65-1.92 2.13-3.67 1.47-1.75 3.82-3.3 2.35-1.55 5.78-2.7 3.42-1.15 7.97-1.88 4.55-.72 10.4-.87v-3q0-5.15-2.2-7.63-2.2-2.47-6.35-2.47-3 0-4.97.7-1.98.7-3.48 1.57-1.5.88-2.72 1.58-1.23.7-2.73.7-1.3 0-2.2-.68-.9-.67-1.45-1.57Zm68.5 13.3q2.3 0 4-.63 1.7-.62 2.83-1.72 1.12-1.1 1.7-2.65.57-1.55.57-3.4 0-3.8-2.27-6.03-2.28-2.22-6.83-2.22-4.55 0-6.82 2.22-2.28 2.23-2.28 6.03 0 1.8.58 3.35.57 1.55 1.7 2.67 1.12 1.13 2.85 1.75 1.72.63 3.97.63Zm13.95 29.2q0-1.5-.9-2.45-.9-.95-2.45-1.48-1.55-.52-3.62-.77-2.08-.25-4.4-.38-2.33-.12-4.8-.22-2.48-.1-4.83-.4-2.05 1.15-3.32 2.7-1.28 1.55-1.28 3.6 0 1.35.68 2.53.67 1.17 2.15 2.02 1.47.85 3.82 1.33 2.35.47 5.75.47 3.45 0 5.95-.53 2.5-.52 4.13-1.44 1.62-.93 2.37-2.2.75-1.28.75-2.78Zm-2.45-51.85h14.75v4.6q0 2.2-2.65 2.7l-4.6.85q1.05 2.65 1.05 5.8 0 3.8-1.52 6.87-1.53 3.08-4.23 5.23-2.7 2.15-6.37 3.32-3.68 1.18-7.93 1.18-1.5 0-2.9-.15t-2.75-.4q-2.4 1.45-2.4 3.25 0 1.55 1.43 2.27 1.42.73 3.77 1.03 2.35.3 5.35.37 3 .08 6.15.33 3.15.25 6.15.87 3 .63 5.35 1.98 2.35 1.35 3.78 3.67 1.42 2.33 1.42 5.98 0 3.4-1.67 6.6-1.68 3.2-4.85 5.7-3.18 2.5-7.8 4.03-4.63 1.52-10.53 1.52-5.8 0-10.1-1.12-4.3-1.13-7.15-3-2.85-1.88-4.25-4.33t-1.4-5.1q0-3.6 2.18-6.03 2.17-2.42 5.97-3.87-2.05-1.05-3.25-2.8-1.2-1.75-1.2-4.6 0-1.15.43-2.38.42-1.22 1.25-2.42.82-1.2 2.07-2.28 1.25-1.07 2.95-1.92-3.9-2.1-6.12-5.6-2.23-3.5-2.23-8.2 0-3.8 1.53-6.88 1.52-3.07 4.25-5.25 2.72-2.17 6.45-3.32 3.72-1.15 8.12-1.15 3.3 0 6.2.67 2.9.68 5.3 1.98Zm32.3 18h23.3q0-2.4-.67-4.53-.68-2.12-2.03-3.72-1.35-1.6-3.42-2.53-2.08-.92-4.83-.92-5.35 0-8.42 3.05-3.08 3.05-3.93 8.65Zm31.5 7.45h-31.75q.3 3.95 1.4 6.82 1.1 2.88 2.9 4.75 1.8 1.88 4.28 2.8 2.47.93 5.47.93 3 0 5.18-.7 2.17-.7 3.8-1.55 1.62-.85 2.85-1.55 1.22-.7 2.37-.7 1.55 0 2.3 1.15l3.55 4.5q-2.05 2.4-4.6 4.02-2.55 1.63-5.32 2.6-2.78.98-5.65 1.38-2.88.4-5.58.4-5.35 0-9.95-1.78-4.6-1.77-8-5.25-3.4-3.47-5.35-8.6-1.95-5.12-1.95-11.87 0-5.25 1.7-9.88 1.7-4.62 4.88-8.05 3.17-3.42 7.75-5.42 4.57-2 10.32-2 4.85 0 8.95 1.55t7.05 4.52q2.95 2.98 4.63 7.3 1.67 4.33 1.67 9.88 0 2.8-.6 3.77-.6.98-2.3.98Zm10.35 17.3q0-1.55.58-2.95.57-1.4 1.57-2.4t2.4-1.6q1.4-.6 3-.6t2.98.6q1.37.6 2.4 1.6 1.02 1 1.62 2.4.6 1.4.6 2.95 0 1.6-.6 2.97-.6 1.38-1.62 2.38-1.03 1-2.4 1.58-1.38.57-2.98.57t-3-.57q-1.4-.58-2.4-1.58t-1.57-2.38q-.58-1.37-.58-2.97Z"/></svg>