<svg xmlns="http://www.w3.org/2000/svg" width="600" height="400" viewBox="0 0 600 400"><rect width="100%" height="100%" fill="#DDDDDD"/><path fill="#999999" d="M145.84 183.26h-16.05v10.7h13.55v5.37h-13.55v14.73h-6.75v-36.15h22.8v5.35Zm9.4 15.02h11.65q0-1.2-.34-2.26-.34-1.06-1.01-1.86-.68-.8-1.72-1.26-1.03-.47-2.41-.47-2.67 0-4.21 1.53t-1.96 4.32Zm15.75 3.73h-15.88q.15 1.97.7 3.41.55 1.44 1.45 2.38.9.93 2.14 1.4 1.24.46 2.74.46 1.5 0 2.58-.35 1.09-.35 1.9-.78.82-.42 1.43-.77.61-.35 1.19-.35.77 0 1.15.57l1.77 2.25q-1.02 1.2-2.3 2.02-1.27.81-2.66 1.3-1.39.48-2.83.69-1.43.2-2.78.2-2.68 0-4.98-.89-2.3-.89-4-2.63-1.7-1.74-2.67-4.3-.98-2.56-.98-5.94 0-2.62.85-4.93.85-2.32 2.44-4.03 1.59-1.71 3.87-2.71 2.29-1 5.17-1 2.42 0 4.47.77 2.05.78 3.53 2.27 1.47 1.48 2.31 3.65.84 2.16.84 4.93 0 1.4-.3 1.89t-1.15.49Zm19.62 5.42v-4.32q-2.67.12-4.5.46-1.82.34-2.92.86-1.1.53-1.58 1.23-.47.7-.47 1.52 0 1.63.96 2.33.96.7 2.51.7 1.9 0 3.29-.69 1.39-.69 2.71-2.09Zm-13.05-13.47-1.1-1.98q4.43-4.05 10.65-4.05 2.25 0 4.03.74 1.77.74 3 2.05 1.22 1.31 1.86 3.14.64 1.82.64 4v16.2h-2.8q-.88 0-1.35-.26-.48-.27-.75-1.07l-.55-1.85q-.98.88-1.9 1.54-.93.66-1.93 1.11-1 .45-2.14.69-1.13.24-2.51.24-1.62 0-3-.44-1.37-.44-2.37-1.31-1-.88-1.55-2.18-.55-1.3-.55-3.02 0-.98.32-1.94.33-.96 1.06-1.84.74-.87 1.92-1.65 1.17-.77 2.88-1.35 1.72-.57 3.99-.93 2.28-.37 5.2-.44v-1.5q0-2.58-1.1-3.81-1.1-1.24-3.17-1.24-1.5 0-2.49.35-.99.35-1.74.79l-1.36.78q-.61.35-1.36.35-.65 0-1.1-.33-.45-.34-.73-.79Zm33.43 20.5q-3.35 0-5.14-1.89-1.79-1.89-1.79-5.21v-14.33h-2.62q-.5 0-.85-.32-.35-.33-.35-.98v-2.45l4.12-.67 1.3-7q.13-.5.48-.78.35-.27.9-.27h3.2v8.07h6.85v4.4h-6.85v13.9q0 1.2.58 1.88.59.67 1.62.67.57 0 .96-.13.39-.14.67-.29.29-.15.52-.29.22-.14.45-.14.27 0 .45.14.17.14.37.41l1.85 3q-1.35 1.13-3.1 1.7-1.75.58-3.62.58Zm25.97-26.05h6.18v25.65h-3.78q-1.22 0-1.55-1.13l-.42-2.05q-1.58 1.6-3.48 2.59-1.9.99-4.47.99-2.1 0-3.72-.71-1.61-.72-2.71-2.02-1.1-1.3-1.66-3.08-.56-1.79-.56-3.94v-16.3h6.17v16.3q0 2.35 1.09 3.64t3.26 1.29q1.6 0 3-.72 1.4-.71 2.65-1.96v-18.55Zm17.73 1.55.37 2.9q1.2-2.3 2.85-3.61 1.65-1.32 3.9-1.32 1.78 0 2.85.78l-.4 4.62q-.12.45-.36.64t-.64.19q-.37 0-1.11-.13-.74-.12-1.44-.12-1.02 0-1.82.3t-1.44.86q-.64.56-1.13 1.36-.48.81-.91 1.83v15.8h-6.17v-25.65h3.62q.95 0 1.33.34.37.33.5 1.21Zm18.07 8.32h11.65q0-1.2-.34-2.26-.33-1.06-1.01-1.86-.67-.8-1.71-1.26-1.04-.47-2.41-.47-2.68 0-4.22 1.53-1.53 1.53-1.96 4.32Zm15.75 3.73h-15.87q.15 1.97.7 3.41.55 1.44 1.45 2.38.9.93 2.13 1.4 1.24.46 2.74.46 1.5 0 2.59-.35 1.09-.35 1.9-.78.81-.42 1.42-.77.62-.35 1.19-.35.78 0 1.15.57l1.78 2.25q-1.03 1.2-2.3 2.02-1.28.81-2.67 1.3-1.38.48-2.82.69-1.44.2-2.79.2-2.67 0-4.97-.89t-4-2.63q-1.7-1.74-2.68-4.3-.97-2.56-.97-5.94 0-2.62.85-4.93.85-2.32 2.43-4.03 1.59-1.71 3.88-2.71t5.16-1q2.43 0 4.48.77 2.05.78 3.52 2.27 1.48 1.48 2.31 3.65.84 2.16.84 4.93 0 1.4-.3 1.89t-1.15.49Zm22.18 4.45v-11.5q-1.05-1.28-2.29-1.8-1.24-.53-2.66-.53-1.4 0-2.53.53-1.12.52-1.92 1.59-.8 1.06-1.23 2.7-.42 1.63-.42 3.86 0 2.25.36 3.81t1.04 2.55q.67.99 1.65 1.43.97.43 2.17.43 1.93 0 3.28-.8 1.35-.8 2.55-2.27Zm0-29.55h6.17v37.15h-3.77q-1.23 0-1.55-1.13l-.53-2.47q-1.55 1.77-3.56 2.87-2.01 1.11-4.69 1.11-2.1 0-3.85-.88t-3.01-2.54q-1.26-1.66-1.95-4.11t-.69-5.6q0-2.85.78-5.3.77-2.45 2.22-4.25 1.45-1.8 3.48-2.81 2.02-1.02 4.55-1.02 2.15 0 3.67.68 1.53.67 2.73 1.82v-13.52Zm32.15 1v36.15h-6.75v-36.15h6.75Zm13.27 36.15h-6.17v-25.65h3.77q1.2 0 1.58 1.12l.4 1.9q.67-.75 1.41-1.37.74-.63 1.57-1.08.84-.45 1.8-.71.97-.26 2.12-.26 2.42 0 3.98 1.31 1.57 1.31 2.34 3.49.6-1.28 1.5-2.19.9-.91 1.98-1.49 1.07-.57 2.28-.85 1.22-.27 2.44-.27 2.13 0 3.78.65t2.77 1.9q1.13 1.25 1.71 3.05.59 1.8.59 4.13v16.32h-6.17v-16.32q0-2.46-1.08-3.69-1.07-1.24-3.15-1.24-.95 0-1.76.32-.81.33-1.43.94-.61.61-.96 1.54-.35.92-.35 2.13v16.32h-6.2v-16.32q0-2.58-1.04-3.76-1.03-1.17-3.03-1.17-1.35 0-2.52.66-1.16.66-2.16 1.81v18.78Zm49.25-6.63v-4.32q-2.67.12-4.5.46-1.82.34-2.92.86-1.1.53-1.58 1.23-.47.7-.47 1.52 0 1.63.96 2.33.96.7 2.51.7 1.9 0 3.29-.69 1.39-.69 2.71-2.09Zm-13.05-13.47-1.1-1.98q4.43-4.05 10.65-4.05 2.25 0 4.03.74 1.77.74 3 2.05 1.22 1.31 1.86 3.14.64 1.82.64 4v16.2h-2.8q-.88 0-1.35-.26-.48-.27-.75-1.07l-.55-1.85q-.98.88-1.9 1.54-.93.66-1.93 1.11-1 .45-2.14.69-1.13.24-2.51.24-1.62 0-3-.44-1.37-.44-2.37-1.31-1-.88-1.55-2.18-.55-1.3-.55-3.02 0-.98.32-1.94.33-.96 1.06-1.84.74-.87 1.92-1.65 1.17-.77 2.88-1.35 1.72-.57 3.99-.93 2.28-.37 5.2-.44v-1.5q0-2.58-1.1-3.81-1.1-1.24-3.17-1.24-1.5 0-2.49.35-.99.35-1.74.79l-1.36.78q-.61.35-1.36.35-.65 0-1.1-.33-.45-.34-.73-.79Zm34.25 6.65q1.15 0 2-.31.85-.32 1.41-.87.57-.55.85-1.32.29-.78.29-1.7 0-1.9-1.14-3.01-1.13-1.12-3.41-1.12-2.27 0-3.41 1.12-1.14 1.11-1.14 3.01 0 .9.29 1.67.29.78.85 1.34t1.42.88q.87.31 1.99.31Zm6.98 14.6q0-.75-.45-1.23-.45-.47-1.23-.73-.77-.26-1.81-.39t-2.2-.19q-1.16-.06-2.4-.11t-2.41-.2q-1.03.57-1.67 1.35-.63.78-.63 1.8 0 .68.33 1.26.34.59 1.08 1.02.74.42 1.91.66 1.18.24 2.88.24 1.72 0 2.97-.27 1.25-.26 2.06-.72.82-.46 1.19-1.1.38-.64.38-1.39Zm-1.23-25.93h7.38v2.3q0 1.1-1.33 1.35l-2.3.43q.53 1.32.53 2.9 0 1.9-.77 3.44-.76 1.53-2.11 2.61-1.35 1.07-3.19 1.66-1.83.59-3.96.59-.75 0-1.45-.08-.7-.07-1.37-.2-1.2.73-1.2 1.63 0 .77.71 1.14.71.36 1.89.51 1.17.15 2.67.19 1.5.03 3.08.16 1.57.12 3.07.44 1.5.31 2.68.98 1.17.68 1.88 1.84.72 1.16.72 2.99 0 1.7-.84 3.3-.84 1.6-2.43 2.85-1.58 1.25-3.9 2.01-2.31.77-5.26.77-2.9 0-5.05-.57-2.15-.56-3.57-1.5-1.43-.93-2.13-2.16-.7-1.22-.7-2.55 0-1.8 1.09-3.01 1.09-1.22 2.99-1.94-1.03-.53-1.63-1.4-.6-.88-.6-2.3 0-.58.21-1.19.22-.61.63-1.21.41-.6 1.04-1.14.62-.54 1.47-.96-1.95-1.05-3.06-2.8-1.11-1.75-1.11-4.1 0-1.9.76-3.44t2.12-2.62q1.37-1.09 3.23-1.67 1.86-.57 4.06-.57 1.65 0 3.1.34 1.45.33 2.65.98Zm16.15 9h11.65q0-1.2-.34-2.26-.33-1.06-1.01-1.86-.67-.8-1.71-1.26-1.04-.47-2.41-.47-2.68 0-4.22 1.53-1.53 1.53-1.96 4.32Zm15.75 3.73h-15.87q.15 1.97.7 3.41.55 1.44 1.45 2.38.9.93 2.13 1.4 1.24.46 2.74.46 1.5 0 2.59-.35 1.09-.35 1.9-.78.81-.42 1.42-.77.62-.35 1.19-.35.78 0 1.15.57l1.78 2.25q-1.03 1.2-2.3 2.02-1.28.81-2.67 1.3-1.38.48-2.82.69-1.44.2-2.79.2-2.67 0-4.97-.89t-4-2.63q-1.7-1.74-2.68-4.3-.97-2.56-.97-5.94 0-2.62.85-4.93.85-2.32 2.43-4.03 1.59-1.71 3.88-2.71t5.16-1q2.43 0 4.48.77 2.05.78 3.52 2.27 1.48 1.48 2.31 3.65.84 2.16.84 4.93 0 1.4-.3 1.89t-1.15.49Zm5.18 8.65q0-.77.28-1.48.29-.7.79-1.2t1.2-.8q.7-.3 1.5-.3t1.49.3q.69.3 1.2.8t.81 1.2q.3.71.3 1.48 0 .8-.3 1.49-.3.68-.81 1.18-.51.5-1.2.79-.69.29-1.49.29t-1.5-.29q-.7-.29-1.2-.79t-.79-1.18q-.28-.69-.28-1.49Z"/></svg>