<?xml version="1.0" encoding="UTF-8"?>
<svg id="Layer_2" data-name="Layer 2" xmlns="http://www.w3.org/2000/svg" viewBox="0 0 500 500">
  <g id="Layer_1-2" data-name="Layer 1">
    <g id="Favicon">
      <rect width="500" height="500" style="fill: #f15c61; stroke-width: 0px;"/>
      <path d="m69.26,261.9h79.13c6.91,0,12.84,4.45,15.05,10.66h64.92l-2.43-12.87c-.54-2.88,1.34-5.63,4.23-6.18.32-.06.64-.1.96-.1h210.25c2.91,0,5.31,2.37,5.31,5.31,0,.61-.1,1.18-.29,1.73l-8.61,32.59c-2.46,9.38-6.63,18.21-12.87,24.43-5.63,5.63-12.87,9.16-21.9,9.16h-136.05c-9.22,0-16.84-3.62-22.7-9.48-6.24-6.24-10.37-15.01-12.13-24.49l-1.79-9.48h-66.9c-2.21,6.18-8.13,10.66-15.05,10.66h-79.13c-8.74-.03-15.94-7.2-15.94-15.97s7.17-15.97,15.94-15.97h0Zm318.55-86.98c2.08-2.08,5.44-2.08,7.49,0,2.05,2.08,2.08,5.44,0,7.49-5.06,5.06-2.75,9.38-.06,14.41,4.51,8.45,9.73,18.15.9,33.42-1.47,2.53-4.71,3.39-7.23,1.92s-3.39-4.71-1.92-7.23c5.86-10.18,2.18-17.09-1.06-23.14-4.67-8.71-8.71-16.23,1.89-26.86h0Zm-39.44,0c2.08-2.08,5.44-2.08,7.49,0,2.05,2.08,2.08,5.44,0,7.49-5.06,5.06-2.75,9.38-.06,14.41,4.51,8.45,9.73,18.15.9,33.42-1.47,2.53-4.71,3.39-7.23,1.92s-3.39-4.71-1.92-7.23c5.86-10.18,2.18-17.09-1.06-23.14-4.67-8.71-8.71-16.23,1.89-26.86h0Zm-39.41,0c2.08-2.08,5.44-2.08,7.49,0,2.08,2.08,2.08,5.44,0,7.49-5.06,5.06-2.75,9.38-.06,14.41,4.51,8.45,9.73,18.15.9,33.42-1.47,2.53-4.71,3.39-7.23,1.92s-3.39-4.71-1.92-7.23c5.86-10.18,2.18-17.09-1.06-23.14-4.71-8.71-8.74-16.23,1.89-26.86h0Zm-39.44,0c2.08-2.08,5.44-2.08,7.49,0,2.08,2.08,2.08,5.44,0,7.49-5.06,5.06-2.75,9.38-.06,14.41,4.51,8.45,9.73,18.15.9,33.42-1.47,2.53-4.71,3.39-7.23,1.92s-3.39-4.71-1.92-7.23c5.86-10.18,2.18-17.09-1.06-23.14-4.67-8.71-8.71-16.23,1.89-26.86h0Zm158.04,115.4l6.95-26.31h-197l5.03,26.7c1.41,7.43,4.55,14.25,9.25,18.95,3.94,3.94,9.06,6.37,15.21,6.37h136.05c5.92,0,10.66-2.34,14.41-6.05,4.8-4.83,8.1-11.94,10.12-19.66h0Z" style="fill: #eaeaea; fill-rule: evenodd; stroke-width: 0px;"/>
    </g>
  </g>
</svg>