<?xml version="1.0" encoding="UTF-8"?>
<svg id="Layer_2" data-name="Layer 2" xmlns="http://www.w3.org/2000/svg" viewBox="0 0 362.4 53.96">
  <g id="Layer_1-2" data-name="Layer 1">
    <g id="Original_Logo" data-name="Original Logo">
      <g id="Pan-icon">
        <path d="m3.73,26.46h18.52c1.62,0,3,1.04,3.52,2.49h15.19l-.57-3.01c-.13-.67.31-1.32.99-1.45.07-.01.15-.02.22-.02h49.2c.68,0,1.24.55,1.24,1.24,0,.14-.02.28-.07.4l-2.01,7.63c-.58,2.19-1.55,4.26-3.01,5.72-1.32,1.32-3.01,2.14-5.12,2.14h-31.84c-2.16,0-3.94-.85-5.31-2.22-1.46-1.46-2.43-3.51-2.84-5.73l-.42-2.22h-15.66c-.52,1.45-1.9,2.49-3.52,2.49H3.73c-2.04,0-3.73-1.69-3.73-3.74s1.68-3.74,3.73-3.74h0ZM78.27,6.11c.49-.49,1.27-.49,1.75,0,.48.49.49,1.27,0,1.75-1.18,1.18-.64,2.19-.01,3.37,1.06,1.98,2.28,4.25.21,7.82-.34.59-1.1.79-1.69.45s-.79-1.1-.45-1.69c1.37-2.38.51-4-.25-5.42-1.09-2.04-2.04-3.8.44-6.28h0Zm-9.23,0c.49-.49,1.27-.49,1.75,0,.48.49.49,1.27,0,1.75-1.18,1.18-.64,2.19-.01,3.37,1.06,1.98,2.28,4.25.21,7.82-.34.59-1.1.79-1.69.45s-.79-1.1-.45-1.69c1.37-2.38.51-4-.25-5.42-1.09-2.04-2.04-3.8.44-6.28h0Zm-9.22,0c.49-.49,1.27-.49,1.75,0,.49.49.49,1.27,0,1.75-1.18,1.18-.64,2.19-.01,3.37,1.06,1.98,2.28,4.25.21,7.82-.34.59-1.1.79-1.69.45s-.79-1.1-.45-1.69c1.37-2.38.51-4-.25-5.42-1.1-2.04-2.04-3.8.44-6.28h0Zm-9.23,0c.49-.49,1.27-.49,1.75,0,.49.49.49,1.27,0,1.75-1.18,1.18-.64,2.19-.01,3.37,1.06,1.98,2.28,4.25.21,7.82-.34.59-1.1.79-1.69.45s-.79-1.1-.45-1.69c1.37-2.38.51-4-.25-5.42-1.09-2.04-2.04-3.8.44-6.28h0Zm36.98,27l1.63-6.16h-46.1l1.18,6.25c.33,1.74,1.06,3.33,2.16,4.43.92.92,2.12,1.49,3.56,1.49h31.84c1.39,0,2.49-.55,3.37-1.42,1.12-1.13,1.9-2.79,2.37-4.6h0Z" style="fill: #c82127; fill-rule: evenodd; stroke-width: 0px;"/>
      </g>
      <g id="Text-Layer">
        <path d="m134.33,18.46h-12.33v-4.31c0-2.71-.12-4.41-.35-5.1-.23-.68-.79-1.03-1.67-1.03-.76,0-1.28.29-1.55.88-.27.59-.41,2.09-.41,4.51v22.76c0,2.13.14,3.53.41,4.2.27.67.82,1.01,1.64,1.01.9,0,1.51-.38,1.83-1.14s.48-2.25.48-4.45v-5.62h-2.49v-7.21h14.44v25.46h-7.75l-1.14-3.4c-.84,1.46-1.9,2.56-3.18,3.3s-2.79,1.1-4.53,1.1c-2.07,0-4.01-.5-5.82-1.51s-3.18-2.25-4.12-3.74c-.94-1.48-1.52-3.04-1.76-4.67-.23-1.63-.35-4.08-.35-7.34v-14.09c0-4.53.24-7.82.73-9.87.49-2.05,1.89-3.93,4.2-5.64,2.31-1.71,5.31-2.56,8.98-2.56s6.61.74,8.99,2.23c2.38,1.48,3.94,3.25,4.66,5.29.72,2.04,1.08,5.01,1.08,8.89v2.05Z" style="fill: #0c7e8b; stroke-width: 0px;"/>
        <path d="m163.94,1v9.49h-7.32v37.94h-12.33V10.49h-7.29V1h26.95Z" style="fill: #0c7e8b; stroke-width: 0px;"/>
        <path d="m166.76,1h8.73c5.82,0,9.76.22,11.82.67,2.06.45,3.74,1.6,5.04,3.44s1.95,4.79,1.95,8.83c0,3.69-.46,6.17-1.38,7.44-.92,1.27-2.72,2.03-5.42,2.29,2.44.61,4.08,1.42,4.92,2.43.84,1.02,1.36,1.95,1.57,2.8s.31,3.19.31,7.02v12.51h-11.46v-15.76c0-2.54-.2-4.11-.6-4.72-.4-.6-1.45-.91-3.15-.91v21.39h-12.33V1Zm12.33,8.12v10.55c1.39,0,2.36-.19,2.92-.57s.83-1.62.83-3.71v-2.61c0-1.5-.27-2.49-.81-2.96s-1.52-.7-2.94-.7Z" style="fill: #083954; stroke-width: 0px;"/>
        <path d="m225.53,29.68h-15.32v8.41c0,1.76.13,2.89.38,3.4.25.51.74.76,1.46.76.9,0,1.5-.34,1.8-1.01s.45-1.98.45-3.91v-5.13h11.22v2.87c0,2.4-.15,4.25-.45,5.54s-1.01,2.67-2.12,4.13-2.52,2.56-4.23,3.3-3.85,1.1-6.43,1.1-4.71-.36-6.62-1.08c-1.91-.72-3.4-1.71-4.47-2.97s-1.8-2.65-2.21-4.16c-.41-1.51-.62-3.72-.62-6.61v-11.34c0-3.4.46-6.08,1.38-8.04.92-1.96,2.42-3.47,4.51-4.51,2.09-1.04,4.49-1.57,7.21-1.57,3.32,0,6.06.63,8.22,1.89s3.67,2.93,4.54,5.01c.87,2.08,1.3,5.01,1.3,8.77v5.16Zm-11.87-6.33v-2.84c0-2.01-.11-3.31-.32-3.9s-.65-.88-1.32-.88c-.82,0-1.33.25-1.52.75s-.29,1.84-.29,4.03v2.84h3.46Z" style="fill: #083954; stroke-width: 0px;"/>
        <path d="m255.56,24.23h-11.16v-4.48c0-1.56-.13-2.62-.38-3.18s-.72-.83-1.41-.83-1.14.25-1.38.73c-.23.49-.35,1.58-.35,3.28v18.34c0,1.39.18,2.43.53,3.12.35.69.87,1.04,1.55,1.04.8,0,1.34-.36,1.63-1.08.28-.72.42-2.09.42-4.1v-4.63h10.55c-.02,3.11-.13,5.43-.34,6.99s-.86,3.15-1.96,4.78c-1.1,1.63-2.54,2.86-4.32,3.69s-3.97,1.25-6.59,1.25c-3.34,0-5.99-.57-7.94-1.71s-3.33-2.74-4.15-4.8c-.81-2.06-1.22-4.98-1.22-8.77v-11.04c0-3.3.33-5.79,1-7.47.66-1.68,2.08-3.18,4.25-4.5s4.8-1.98,7.91-1.98,5.72.65,7.91,1.96c2.19,1.31,3.64,2.96,4.37,4.95.72,1.99,1.08,4.82,1.08,8.47Z" style="fill: #083954; stroke-width: 0px;"/>
        <path d="m271.26,1v6.18h-12.19V1h12.19Zm0,8.55v38.88h-12.19V9.55h12.19Z" style="fill: #083954; stroke-width: 0px;"/>
        <path d="m287.55,9.55l-.21,3.44c1.05-1.39,2.22-2.43,3.49-3.11,1.27-.69,2.66-1.03,4.16-1.03,1.84,0,3.42.49,4.76,1.48,1.34.99,2.17,2.12,2.5,3.41.33,1.29.5,3.48.5,6.56v16.38c0,3.54-.21,6.05-.63,7.54s-1.28,2.69-2.58,3.57-2.87,1.33-4.7,1.33c-1.46,0-2.82-.34-4.07-1.03-1.25-.68-2.39-1.7-3.43-3.05v8.91h-11.84V9.55h12.04Zm3.37,11.31c0-2.4-.09-3.86-.26-4.37-.18-.51-.66-.76-1.46-.76s-1.28.29-1.51.88-.34,2-.34,4.25v16.11c0,2.34.12,3.81.35,4.39s.74.88,1.52.88,1.24-.27,1.42-.81c.19-.54.28-1.84.28-3.91v-16.67Z" style="fill: #083954; stroke-width: 0px;"/>
        <path d="m333.46,29.68h-15.32v8.41c0,1.76.13,2.89.38,3.4.25.51.74.76,1.46.76.9,0,1.5-.34,1.8-1.01s.45-1.98.45-3.91v-5.13h11.22v2.87c0,2.4-.15,4.25-.45,5.54s-1.01,2.67-2.12,4.13-2.52,2.56-4.23,3.3-3.85,1.1-6.43,1.1-4.71-.36-6.62-1.08c-1.91-.72-3.4-1.71-4.47-2.97s-1.8-2.65-2.21-4.16c-.41-1.51-.62-3.72-.62-6.61v-11.34c0-3.4.46-6.08,1.38-8.04.92-1.96,2.42-3.47,4.51-4.51,2.09-1.04,4.49-1.57,7.21-1.57,3.32,0,6.06.63,8.22,1.89s3.67,2.93,4.54,5.01c.87,2.08,1.3,5.01,1.3,8.77v5.16Zm-11.87-6.33v-2.84c0-2.01-.11-3.31-.32-3.9s-.65-.88-1.32-.88c-.82,0-1.33.25-1.52.75s-.29,1.84-.29,4.03v2.84h3.46Z" style="fill: #083954; stroke-width: 0px;"/>
        <path d="m361.49,21.97h-10.49v-2.11c0-1.8-.1-2.93-.31-3.41-.21-.48-.72-.72-1.54-.72-.66,0-1.16.22-1.49.66s-.5,1.1-.5,1.98c0,1.19.08,2.07.25,2.62s.66,1.17,1.49,1.83c.83.66,2.53,1.63,5.11,2.9,3.44,1.68,5.69,3.26,6.77,4.75,1.07,1.48,1.61,3.64,1.61,6.47,0,3.16-.41,5.55-1.23,7.16s-2.19,2.85-4.12,3.72c-1.92.87-4.24,1.3-6.96,1.3-3.01,0-5.58-.47-7.72-1.41s-3.61-2.21-4.41-3.81c-.8-1.6-1.2-4.02-1.2-7.27v-1.88h10.49v2.46c0,2.09.13,3.45.4,4.07.26.63.79.94,1.57.94.84,0,1.43-.21,1.76-.63.33-.42.5-1.3.5-2.65,0-1.86-.21-3.02-.64-3.49-.45-.47-2.74-1.86-6.88-4.16-3.48-1.95-5.6-3.72-6.36-5.32-.76-1.59-1.14-3.48-1.14-5.67,0-3.11.41-5.39,1.23-6.87.82-1.47,2.21-2.61,4.17-3.41,1.96-.8,4.24-1.2,6.84-1.2s4.77.33,6.58.98c1.81.65,3.19,1.52,4.16,2.59.97,1.07,1.55,2.07,1.76,2.99.21.92.31,2.35.31,4.31v2.26Z" style="fill: #083954; stroke-width: 0px;"/>
      </g>
    </g>
  </g>
</svg>